<svg xmlns="http://www.w3.org/2000/svg" width="320" height="320" fill="none" xmlns:v="https://vecta.io/nano"><path opacity=".2" fill-rule="evenodd" d="M319.996 159.628a161.93 161.93 0 0 1-.38 11.101v68.146.379 1.121.379V318.5v1.5h-1.5-77.65-.379-1.121-.379-77.649-.38-1.12-.38-77.65-.38-1.12-.38H1.879.379v-1.5-77.746-.379-1.121-.379-68.166A161.6 161.6 0 0 1 0 159.628c0-3.724.128-7.419.379-11.081V81.504v-.379h0v-1.5V1.879.379h1.5 77.649 1.5 0 .38 67.477C152.557.128 156.263 0 159.998 0s7.442.128 11.113.379h67.476.38 1.12.38 77.649 1.5v1.5 77.746 1.5.378 67.024c.252 3.668.38 7.369.38 11.1zm-1.88-78.124v53.572c-2.971-19.201-9.372-37.273-18.559-53.572h18.559zm0 67.077c-1.68-24.276-8.851-47.044-20.283-67.077h-57.367v77.746h77.65v-10.669zm0-68.955h-19.634c-13.956-23.994-33.997-44.027-58.015-57.998V1.879h77.649v77.746zm-21.372 0c-13.657-23.184-33.069-42.589-56.277-56.26v56.26h56.277zM238.587 1.879v18.672c-16.407-9.248-34.613-15.69-53.963-18.672h53.963zm0 20.397C218.435 10.775 195.51 3.561 171.059 1.879h-10.122v77.746h77.65v-57.35zM81.408 1.879h53.965a159.17 159.17 0 0 0-53.965 18.673V1.879zm67.529 0a157.81 157.81 0 0 0-67.529 20.397v57.349h77.65V1.879h-10.121zm-69.409 0v19.75C55.511 35.599 35.47 55.632 21.515 79.625H1.879V1.879h77.649zm0 21.488C56.321 37.038 36.91 56.441 23.253 79.625h56.275V23.367zM1.879 81.504h18.56C11.251 97.806 4.85 115.88 1.879 135.085V81.504zm0 79.625v9.528c1.708 24.737 9.119 47.909 20.931 68.218h56.719v-77.746H1.879zm0 77.746v-54.703a158.32 158.32 0 0 0 19.198 54.703H1.879zm0 1.879h20.294a160.62 160.62 0 0 0 57.355 56.875V318.5H1.879v-77.746zM81.408 318.5v-19.795c18.913 10.661 40.218 17.593 62.911 19.795H81.408zm0-21.52c22.91 13.076 49.404 20.61 77.65 20.774v-77h-77.65v56.226zm157.179 21.52h-62.909c22.692-2.202 43.996-9.134 62.909-19.794V318.5zm-77.649-.746c28.245-.163 54.74-7.698 77.649-20.773v-56.227h-77.649v77zm79.528.746v-20.871c23.643-13.752 43.433-33.379 57.357-56.875h20.293V318.5h-77.65zm0-22.609a159.12 159.12 0 0 0 55.61-55.137h-55.61v55.137zm0-57.016h56.72c11.809-20.303 19.219-43.469 20.93-68.199v-9.547h-77.65v77.746zm77.65-54.695c-3.04 19.644-9.668 38.104-19.197 54.695h19.197V184.18zM23.92 240.754c13.618 22.688 32.776 41.687 55.609 55.136v-55.136H23.92zm-1.756-159.25A156.91 156.91 0 0 0 1.879 148.6v10.65h77.649V81.504H22.164zm59.245 0h77.65v5.119h-34.031-5.64-20.306v72.627H81.408V81.504zm17.672 79.625H81.408v77.746h77.65v-77.746h-34.031v72.059H99.081v-72.059zm25.946-1.879h34.031v-46.696h-34.031v46.696zm35.911-72.627h37.415 5.641H224.3v72.627h14.287V81.504h-77.649v5.119zm63.362 74.506h14.287v77.746h-77.649v-77.746h37.415v72.059H224.3v-72.059zm-25.947-1.879v-46.696h-37.415v46.696h37.415z" fill="#fff"/></svg>