<svg xmlns="http://www.w3.org/2000/svg" width="38" height="38" fill="none" xmlns:v="https://vecta.io/nano"><path d="M0 12.667c0-4.434 0-6.651.863-8.344.759-1.49 1.97-2.701 3.46-3.46C6.016 0 8.233 0 12.667 0h12.667c4.434 0 6.651 0 8.344.863 1.49.759 2.701 1.97 3.46 3.46C38 6.016 38 8.233 38 12.667v12.667c0 4.434 0 6.651-.863 8.344-.759 1.49-1.97 2.701-3.46 3.46-1.693.863-3.91.863-8.344.863H12.667c-4.434 0-6.651 0-8.344-.863-1.49-.759-2.701-1.97-3.46-3.46C0 31.984 0 29.767 0 25.333V12.667z" fill="#2be080"/><circle cx="19" cy="19" r="11" fill="#fff"/><path fill-rule="evenodd" d="M15.154 19c0 2.124 1.722 3.846 3.846 3.846s3.846-1.722 3.846-3.846H25a6 6 0 1 1-12 0h2.154z" fill="#2be080"/></svg>