<svg xmlns="http://www.w3.org/2000/svg" width="21" height="22" fill="none" xmlns:v="https://vecta.io/nano"><g filter="url(#A)"><path fill-rule="evenodd" d="M11.793 8.264a3.67 3.67 0 0 1-5.185 0 3.67 3.67 0 0 1 0-5.185 3.67 3.67 0 0 1 5.185 0 3.67 3.67 0 0 1 0 5.185zm.44 1.383c-1.96 1.499-4.776 1.353-6.569-.44a5 5 0 0 1 7.071-7.071 5 5 0 0 1 .44 6.568l3.567 3.567-.943.943-3.567-3.567z" fill="#fff"/></g><defs><filter id="A" x=".2" y=".671" width="20.543" height="20.542" filterUnits="userSpaceOnUse" color-interpolation-filters="sRGB"><feFlood flood-opacity="0" result="A"/><feColorMatrix in="SourceAlpha" values="0 0 0 0 0 0 0 0 0 0 0 0 0 0 0 0 0 0 127 0" result="B"/><feOffset dy="4"/><feGaussianBlur stdDeviation="2"/><feComposite in2="B" operator="out"/><feColorMatrix values="0 0 0 0 0 0 0 0 0 0 0 0 0 0 0 0 0 0 0.25 0"/><feBlend in2="A"/><feBlend in="SourceGraphic"/></filter></defs></svg>